HIERARCHY
ROOT Hips
{
	OFFSET 0.000000 0.000000 0.000000
	CHANNELS 6 Xposition Yposition Zposition Yrotation Zrotation Xrotation
	JOINT Spine
	{
		OFFSET 0.000000 -0.000000 1.489414
		CHANNELS 6 Xposition Yposition Zposition Yrotation Zrotation Xrotation
		JOINT Spine1
		{
			OFFSET 0.000000 -0.000001 4.064482
			CHANNELS 6 Xposition Yposition Zposition Yrotation Zrotation Xrotation
			JOINT Neck
			{
				OFFSET 0.000000 -0.000001 4.427754
				CHANNELS 6 Xposition Yposition Zposition Yrotation Zrotation Xrotation
				JOINT Head
				{
					OFFSET 0.000000 -0.363272 2.815356
					CHANNELS 6 Xposition Yposition Zposition Yrotation Zrotation Xrotation
					End Site
					{
						OFFSET 0.000000 -0.000001 3.632717
					}
				}
			}
			JOINT LeftShoulder
			{
				OFFSET 0.731535 0.096024 3.575184
				CHANNELS 6 Xposition Yposition Zposition Yrotation Zrotation Xrotation
				JOINT LeftArm
				{
					OFFSET 2.610319 0.000000 0.000000
					CHANNELS 6 Xposition Yposition Zposition Yrotation Zrotation Xrotation
					JOINT LeftForeArm
					{
						OFFSET 5.118421 0.000000 0.000000
						CHANNELS 6 Xposition Yposition Zposition Yrotation Zrotation Xrotation
						JOINT LeftHand
						{
							OFFSET 4.756909 0.000000 0.000000
							CHANNELS 6 Xposition Yposition Zposition Yrotation Zrotation Xrotation
							End Site
							{
								OFFSET 2.724539 0.000000 0.000000
							}
						}
					}
				}
			}
			JOINT RightShoulder
			{
				OFFSET -0.721442 0.096024 3.575184
				CHANNELS 6 Xposition Yposition Zposition Yrotation Zrotation Xrotation
				JOINT RightArm
				{
					OFFSET -2.610319 0.000000 0.000000
					CHANNELS 6 Xposition Yposition Zposition Yrotation Zrotation Xrotation
					JOINT RightForeArm
					{
						OFFSET -5.118422 0.000000 0.000000
						CHANNELS 6 Xposition Yposition Zposition Yrotation Zrotation Xrotation
						JOINT RightHand
						{
							OFFSET -4.756909 0.000000 0.000000
							CHANNELS 6 Xposition Yposition Zposition Yrotation Zrotation Xrotation
							End Site
							{
								OFFSET -2.724539 0.000000 0.000000
							}
						}
					}
				}
			}
		}
	}
	JOINT LeftUpLeg
	{
		OFFSET 1.816359 0.000000 0.000000
		CHANNELS 6 Xposition Yposition Zposition Yrotation Zrotation Xrotation
		JOINT LeftLeg
		{
			OFFSET 0.000000 0.000001 -7.638974
			CHANNELS 6 Xposition Yposition Zposition Yrotation Zrotation Xrotation
			JOINT LeftFoot
			{
				OFFSET 0.000000 0.000001 -8.008609
				CHANNELS 6 Xposition Yposition Zposition Yrotation Zrotation Xrotation
				JOINT LeftToeBase
				{
					OFFSET 0.000000 -2.724539 -1.180634
					CHANNELS 6 Xposition Yposition Zposition Yrotation Zrotation Xrotation
					End Site
					{
						OFFSET 0.000000 -0.726544 0.000000
					}
				}
			}
		}
	}
	JOINT RightUpLeg
	{
		OFFSET -1.816359 0.000000 0.000000
		CHANNELS 6 Xposition Yposition Zposition Yrotation Zrotation Xrotation
		JOINT RightLeg
		{
			OFFSET 0.000000 0.000001 -7.638974
			CHANNELS 6 Xposition Yposition Zposition Yrotation Zrotation Xrotation
			JOINT RightFoot
			{
				OFFSET 0.000000 0.000001 -8.008609
				CHANNELS 6 Xposition Yposition Zposition Yrotation Zrotation Xrotation
				JOINT RightToeBase
				{
					OFFSET 0.000000 -2.724539 -1.180634
					CHANNELS 6 Xposition Yposition Zposition Yrotation Zrotation Xrotation
					End Site
					{
						OFFSET 0.000000 -0.726544 0.000000
					}
				}
			}
		}
	}
}
MOTION
Frames: 7
Frame Time: 0.041667
22.311125 0.904899 16.088011 175.887630 -26.153134 -193.208116 0.000000 -0.000000 1.489413 -5.049534 -1.118022 -12.779311 0.000000 -0.000001 4.064481 -0.950887 -0.746749 19.731401 -0.000001 -0.000001 4.427757 -7.539346 8.864414 12.294160 -0.000000 -0.363271 2.815354 11.858525 12.743165 4.057617 0.731535 0.096025 3.575186 -17.057573 2.207207 -8.065862 2.610318 -0.000000 0.000000 26.612271 -17.473791 4.200943 5.118420 -0.000001 0.000006 -15.059577 -17.488421 -15.202176 4.756909 0.000001 -0.000002 4.536654 -2.399171 -12.779234 -0.721444 0.096025 3.575187 16.127822 -7.223761 -3.833906 -2.610323 0.000000 0.000001 -20.968908 17.895159 27.339133 -5.118417 -0.000001 0.000003 127.006439 47.924292 -80.051907 -4.756908 -0.000003 0.000003 26.966021 6.775916 1.758590 1.816359 -0.000000 0.000001 8.407541 -14.545719 10.360255 -0.000001 0.000001 -7.638977 4.894873 -8.394500 20.229750 -0.000000 0.000001 -8.008608 -11.846723 8.446201 -2.612248 0.000002 -2.724539 -1.180633 0.000000 0.000000 0.000001 -1.816358 0.000001 0.000001 8.796257 5.787173 -76.531149 -0.000002 -0.000001 -7.638974 -29.963149 -48.549398 54.264299 -0.000001 0.000001 -8.008609 -5.739712 -26.293356 0.526382 0.000000 -2.724540 -1.180635 0.000000 -0.000000 0.000001 
22.271475 0.924052 16.077518 176.146685 -26.991425 -192.887930 0.000004 -0.000001 1.489416 -4.899553 -1.252160 -12.922562 0.000001 -0.000002 4.064480 -0.806701 -0.761409 19.566243 -0.000005 -0.000000 4.427751 -7.460688 8.876504 12.242130 -0.000001 -0.363270 2.815358 11.766788 12.728230 4.129848 0.731531 0.096024 3.575182 -17.034362 2.207918 -8.037820 2.610320 0.000001 -0.000001 26.641134 -17.555673 4.232570 5.118420 0.000000 -0.000000 -15.099173 -17.479084 -15.286151 4.756908 -0.000000 -0.000000 4.512659 -2.352302 -12.860639 -0.721446 0.096025 3.575181 16.145437 -7.316786 -3.787419 -2.610323 -0.000001 0.000003 -20.913780 17.861324 27.052933 -5.118420 -0.000002 0.000000 127.277734 48.084996 -80.507337 -4.756909 -0.000000 -0.000000 26.929534 6.785933 1.856165 1.816363 -0.000001 0.000002 8.643089 -14.682687 10.195830 0.000002 0.000001 -7.638973 4.982577 -8.450008 20.294522 0.000002 0.000001 -8.008608 -11.847655 7.955144 -2.680928 0.000000 -2.724539 -1.180633 -0.000000 0.000000 0.000000 -1.816358 0.000000 0.000001 8.438394 5.963614 -75.820742 -0.000001 0.000000 -7.638973 -30.052429 -47.889608 53.232094 0.000003 0.000001 -8.008609 -6.248716 -25.943738 0.657031 0.000000 -2.724537 -1.180633 0.000003 -0.000001 0.000001 
22.230707 0.945750 16.066723 176.385879 -27.848583 -192.620432 0.000000 0.000000 1.489413 -4.757747 -1.388658 -13.045394 -0.000001 -0.000000 4.064482 -0.656918 -0.776279 19.430193 -0.000005 -0.000000 4.427757 -7.434217 8.818491 12.267680 0.000003 -0.363277 2.815358 11.794411 12.661498 4.069091 0.731534 0.096024 3.575184 -17.057089 2.172931 -7.994275 2.610322 -0.000001 0.000002 26.694295 -17.658447 4.097546 5.118422 0.000000 -0.000002 -15.081047 -17.456193 -15.250424 4.756908 0.000001 0.000001 4.500807 -2.370989 -12.830324 -0.721443 0.096023 3.575186 16.126490 -7.378860 -3.750242 -2.610318 -0.000000 -0.000001 -20.833274 17.772033 26.768416 -5.118420 -0.000000 0.000002 127.518416 48.210709 -80.913454 -4.756908 -0.000005 0.000002 26.928793 6.851605 1.903637 1.816359 0.000001 -0.000002 8.879283 -14.643553 10.082563 0.000001 0.000001 -7.638975 4.973909 -8.597695 20.395821 0.000000 0.000001 -8.008608 -11.878150 7.383957 -2.762534 0.000000 -2.724539 -1.180633 -0.000000 0.000000 0.000002 -1.816358 0.000000 -0.000002 8.085420 6.155025 -75.086093 0.000002 0.000002 -7.638975 -29.791554 -47.300727 52.449187 0.000000 0.000001 -8.008611 -6.734937 -25.483123 0.869031 -0.000000 -2.724537 -1.180633 0.000000 -0.000001 -0.000001 
22.190073 0.965605 16.053375 176.684781 -28.692139 -192.300862 0.000001 0.000000 1.489413 -4.558924 -1.496046 -13.150207 0.000002 -0.000000 4.064482 -0.526040 -0.782346 19.270207 -0.000002 -0.000001 4.427752 -7.408095 8.776119 12.254043 0.000000 -0.363273 2.815355 11.819830 12.611087 4.028805 0.731534 0.096024 3.575183 -17.045058 2.102009 -8.004788 2.610320 0.000001 -0.000002 26.679098 -17.707679 3.971477 5.118422 0.000000 0.000001 -15.019598 -17.448931 -15.187238 4.756910 -0.000001 0.000001 4.504831 -2.367731 -12.777746 -0.721442 0.096024 3.575182 16.135676 -7.474724 -3.747184 -2.610319 -0.000001 -0.000002 -20.814313 17.674433 26.568005 -5.118416 -0.000003 -0.000001 127.763087 48.302514 -81.275836 -4.756907 0.000000 0.000001 26.915496 6.829393 1.977385 1.816360 0.000000 -0.000001 9.128094 -14.702138 9.952103 -0.000002 0.000001 -7.638975 4.957148 -8.408080 20.440453 0.000001 0.000001 -8.008608 -11.954556 6.569258 -2.884773 0.000002 -2.724539 -1.180634 -0.000001 0.000000 -0.000001 -1.816360 0.000001 -0.000001 7.763178 6.360844 -74.389769 0.000000 -0.000000 -7.638973 -29.563292 -46.564883 51.698593 -0.000001 0.000002 -8.008606 -6.928826 -25.068358 1.120001 0.000001 -2.724538 -1.180635 -0.000003 -0.000001 0.000000 
22.148018 0.986391 16.041521 176.911052 -29.568230 -192.031889 0.000001 -0.000000 1.489418 -4.460578 -1.647539 -13.276086 0.000000 0.000000 4.064482 -0.337975 -0.798225 19.177141 -0.000001 -0.000002 4.427753 -7.352999 8.775940 12.181182 0.000000 -0.363272 2.815356 11.761112 12.584852 4.028488 0.731534 0.096023 3.575182 -17.062424 2.107376 -7.958622 2.610323 0.000002 0.000001 26.730509 -17.823015 4.074692 5.118422 0.000000 0.000002 -15.117609 -17.414621 -15.287328 4.756910 -0.000001 -0.000001 4.487473 -2.322681 -12.869343 -0.721443 0.096023 3.575184 16.145310 -7.532586 -3.739796 -2.610320 -0.000001 -0.000002 -20.801939 17.555220 26.246530 -5.118422 -0.000002 -0.000001 128.070869 48.453379 -81.757214 -4.756906 -0.000001 0.000004 26.984399 6.823280 2.082927 1.816361 -0.000000 0.000001 9.302713 -14.776230 9.924340 -0.000001 0.000001 -7.638975 5.058952 -8.552117 20.459237 0.000001 0.000001 -8.008607 -12.095640 6.071283 -3.046853 0.000002 -2.724538 -1.180634 -0.000000 -0.000001 0.000001 -1.816357 0.000000 0.000003 7.444397 6.532207 -73.603853 0.000004 -0.000001 -7.638977 -29.216226 -45.937650 50.966120 -0.000000 0.000002 -8.008608 -7.138914 -24.589253 1.365406 0.000000 -2.724539 -1.180632 -0.000004 -0.000002 0.000004 
22.105839 1.011554 16.029015 177.114059 -30.484067 -191.792409 0.000001 0.000001 1.489416 -4.274809 -1.823087 -13.401472 -0.000001 -0.000001 4.064483 -0.287335 -0.841982 19.098698 -0.000003 0.000001 4.427755 -7.289916 8.744444 12.125683 0.000002 -0.363274 2.815358 11.736947 12.528391 4.002018 0.731534 0.096025 3.575187 -17.039669 2.063534 -7.963586 2.610319 0.000001 -0.000003 26.761004 -17.906978 4.033009 5.118422 -0.000002 0.000002 -15.122968 -17.412901 -15.284239 4.756909 0.000000 0.000001 4.442013 -2.328479 -12.866383 -0.721442 0.096025 3.575183 16.142978 -7.665927 -3.659426 -2.610318 0.000000 0.000001 -20.763907 17.574166 26.081795 -5.118422 0.000000 0.000001 128.209645 48.347747 -82.237028 -4.756908 -0.000001 0.000002 26.494784 7.237859 1.571118 1.816359 0.000001 0.000001 9.497027 -14.904779 9.911590 -0.000001 0.000002 -7.638975 5.076674 -8.590798 20.456574 -0.000000 0.000001 -8.008609 -12.163367 5.444150 -3.182673 0.000001 -2.724539 -1.180633 0.000000 -0.000000 0.000003 -1.816358 -0.000000 0.000000 7.090317 6.711452 -72.786819 -0.000001 0.000002 -7.638975 -28.809359 -45.080461 50.367164 0.000001 0.000000 -8.008610 -7.577379 -23.956004 1.439594 -0.000000 -2.724537 -1.180635 0.000001 -0.000006 -0.000002 
22.062969 1.031385 16.014555 177.360273 -31.340036 -191.485733 0.000001 -0.000000 1.489412 -4.161557 -1.940175 -13.535567 0.000000 -0.000001 4.064482 -0.107755 -0.847606 19.018172 0.000001 -0.000001 4.427753 -7.286595 8.708700 12.063478 0.000003 -0.363274 2.815352 11.788698 12.489730 3.941221 0.731534 0.096024 3.575186 -17.059378 2.018931 -7.935192 2.610318 -0.000000 -0.000002 26.766688 -17.995506 3.902327 5.118422 0.000000 0.000006 -15.117668 -17.417903 -15.243976 4.756908 0.000000 0.000000 4.458809 -2.357537 -12.824767 -0.721443 0.096024 3.575181 16.135149 -7.750301 -3.623253 -2.610317 -0.000001 -0.000001 -20.749287 17.494044 25.689503 -5.118421 0.000001 0.000004 128.492333 48.544856 -82.649831 -4.756908 -0.000001 0.000002 26.598614 7.168160 1.790210 1.816357 0.000001 -0.000001 9.688210 -14.914493 9.817378 0.000002 0.000002 -7.638975 5.208858 -8.904787 20.525871 0.000002 0.000001 -8.008610 -12.276308 5.086634 -3.284518 0.000002 -2.724538 -1.180634 -0.000001 0.000000 -0.000001 -1.816359 0.000000 -0.000003 6.721288 6.925530 -72.036537 0.000000 0.000001 -7.638976 -28.262983 -44.212433 49.798598 0.000002 0.000002 -8.008607 -7.835539 -23.579589 1.673381 -0.000001 -2.724538 -1.180631 0.000001 -0.000002 0.000003 
